<mxfile host="app.diagrams.net" modified="2023-10-26T21:56:16.734Z" agent="Mozilla/5.0 (X11; Linux x86_64) AppleWebKit/537.36 (KHTML, like Gecko) Chrome/118.0.0.0 Safari/537.36" etag="01DoB1yYy3XVAMIOYQTz" version="22.0.8" type="github">
  <diagram name="Page-1" id="uPnVnsz4AivT6K7XMaV0">
    <mxGraphModel dx="1011" dy="456" grid="1" gridSize="10" guides="1" tooltips="1" connect="1" arrows="1" fold="1" page="1" pageScale="1" pageWidth="850" pageHeight="1100" math="0" shadow="0">
      <root>
        <mxCell id="0" />
        <mxCell id="1" parent="0" />
        <mxCell id="GH7jgtNaJzvZroeDMbT2-57" value="" style="rounded=1;whiteSpace=wrap;html=1;sketch=1;hachureGap=4;jiggle=2;curveFitting=1;fontFamily=Architects Daughter;fontSource=https%3A%2F%2Ffonts.googleapis.com%2Fcss%3Ffamily%3DArchitects%2BDaughter;fontSize=20;fillColor=#E6E6E6;" vertex="1" parent="1">
          <mxGeometry x="10" y="10" width="370" height="690" as="geometry" />
        </mxCell>
        <mxCell id="GH7jgtNaJzvZroeDMbT2-3" value="" style="verticalLabelPosition=bottom;verticalAlign=top;html=1;shape=mxgraph.basic.patternFillRect;fillStyle=diag;step=5;fillStrokeWidth=0.2;fillStrokeColor=#dddddd;sketch=1;hachureGap=4;jiggle=2;curveFitting=1;fontFamily=Architects Daughter;fontSource=https%3A%2F%2Ffonts.googleapis.com%2Fcss%3Ffamily%3DArchitects%2BDaughter;fontSize=20;fillColor=#99CCFF;" vertex="1" parent="1">
          <mxGeometry x="80" y="289" width="210" height="60" as="geometry" />
        </mxCell>
        <mxCell id="GH7jgtNaJzvZroeDMbT2-1" value="" style="shape=cylinder3;whiteSpace=wrap;html=1;boundedLbl=1;backgroundOutline=1;size=15;sketch=1;hachureGap=4;jiggle=2;curveFitting=1;fontFamily=Architects Daughter;fontSource=https%3A%2F%2Ffonts.googleapis.com%2Fcss%3Ffamily%3DArchitects%2BDaughter;fontSize=20;fillColor=#99CCFF;" vertex="1" parent="1">
          <mxGeometry x="129" y="559" width="105" height="120" as="geometry" />
        </mxCell>
        <mxCell id="GH7jgtNaJzvZroeDMbT2-9" value="Server 1" style="whiteSpace=wrap;html=1;align=center;verticalAlign=middle;treeFolding=1;treeMoving=1;sketch=1;hachureGap=4;jiggle=2;curveFitting=1;fontFamily=Architects Daughter;fontSource=https%3A%2F%2Ffonts.googleapis.com%2Fcss%3Ffamily%3DArchitects%2BDaughter;fontSize=20;fillColor=#99CCFF;" vertex="1" parent="1">
          <mxGeometry x="70" y="430" width="100" height="60" as="geometry" />
        </mxCell>
        <mxCell id="GH7jgtNaJzvZroeDMbT2-10" value="Server 2" style="whiteSpace=wrap;html=1;align=center;verticalAlign=middle;treeFolding=1;treeMoving=1;sketch=1;hachureGap=4;jiggle=2;curveFitting=1;fontFamily=Architects Daughter;fontSource=https%3A%2F%2Ffonts.googleapis.com%2Fcss%3Ffamily%3DArchitects%2BDaughter;fontSize=20;fillColor=#99CCFF;" vertex="1" parent="1">
          <mxGeometry x="202.5" y="430" width="100" height="60" as="geometry" />
        </mxCell>
        <mxCell id="GH7jgtNaJzvZroeDMbT2-12" value="" style="shape=actor;whiteSpace=wrap;html=1;sketch=1;hachureGap=4;jiggle=2;curveFitting=1;fontFamily=Architects Daughter;fontSource=https%3A%2F%2Ffonts.googleapis.com%2Fcss%3Ffamily%3DArchitects%2BDaughter;fontSize=20;fillColor=#99CCFF;" vertex="1" parent="1">
          <mxGeometry x="161.5" y="70" width="40" height="60" as="geometry" />
        </mxCell>
        <mxCell id="GH7jgtNaJzvZroeDMbT2-42" value="" style="endArrow=classic;html=1;rounded=0;sketch=1;hachureGap=4;jiggle=2;curveFitting=1;fontFamily=Architects Daughter;fontSource=https%3A%2F%2Ffonts.googleapis.com%2Fcss%3Ffamily%3DArchitects%2BDaughter;fontSize=16;fillColor=#99CCFF;" edge="1" parent="1">
          <mxGeometry width="50" height="50" relative="1" as="geometry">
            <mxPoint x="185" y="359" as="sourcePoint" />
            <mxPoint x="225" y="419" as="targetPoint" />
          </mxGeometry>
        </mxCell>
        <mxCell id="GH7jgtNaJzvZroeDMbT2-43" value="" style="endArrow=classic;html=1;rounded=0;sketch=1;hachureGap=4;jiggle=2;curveFitting=1;fontFamily=Architects Daughter;fontSource=https%3A%2F%2Ffonts.googleapis.com%2Fcss%3Ffamily%3DArchitects%2BDaughter;fontSize=16;fillColor=#99CCFF;" edge="1" parent="1">
          <mxGeometry width="50" height="50" relative="1" as="geometry">
            <mxPoint x="170" y="359" as="sourcePoint" />
            <mxPoint x="125" y="419" as="targetPoint" />
          </mxGeometry>
        </mxCell>
        <mxCell id="GH7jgtNaJzvZroeDMbT2-45" value="" style="endArrow=classic;html=1;rounded=0;sketch=1;hachureGap=4;jiggle=2;curveFitting=1;fontFamily=Architects Daughter;fontSource=https%3A%2F%2Ffonts.googleapis.com%2Fcss%3Ffamily%3DArchitects%2BDaughter;fontSize=16;fillColor=#99CCFF;" edge="1" parent="1">
          <mxGeometry width="50" height="50" relative="1" as="geometry">
            <mxPoint x="124" y="500" as="sourcePoint" />
            <mxPoint x="159" y="540" as="targetPoint" />
          </mxGeometry>
        </mxCell>
        <mxCell id="GH7jgtNaJzvZroeDMbT2-46" value="" style="endArrow=classic;html=1;rounded=0;sketch=1;hachureGap=4;jiggle=2;curveFitting=1;fontFamily=Architects Daughter;fontSource=https%3A%2F%2Ffonts.googleapis.com%2Fcss%3Ffamily%3DArchitects%2BDaughter;fontSize=16;fillColor=#99CCFF;" edge="1" parent="1">
          <mxGeometry width="50" height="50" relative="1" as="geometry">
            <mxPoint x="231.5" y="500" as="sourcePoint" />
            <mxPoint x="199" y="540" as="targetPoint" />
          </mxGeometry>
        </mxCell>
        <mxCell id="GH7jgtNaJzvZroeDMbT2-48" value="" style="endArrow=classic;html=1;rounded=0;sketch=1;hachureGap=4;jiggle=2;curveFitting=1;fontFamily=Architects Daughter;fontSource=https%3A%2F%2Ffonts.googleapis.com%2Fcss%3Ffamily%3DArchitects%2BDaughter;fontSize=16;fillColor=#99CCFF;" edge="1" parent="1">
          <mxGeometry width="50" height="50" relative="1" as="geometry">
            <mxPoint x="185" y="251" as="sourcePoint" />
            <mxPoint x="185" y="281" as="targetPoint" />
          </mxGeometry>
        </mxCell>
        <mxCell id="GH7jgtNaJzvZroeDMbT2-49" value="Database" style="text;html=1;align=center;verticalAlign=middle;resizable=0;points=[];autosize=1;strokeColor=none;fillColor=none;fontSize=20;fontFamily=Architects Daughter;" vertex="1" parent="1">
          <mxGeometry x="124" y="599" width="110" height="40" as="geometry" />
        </mxCell>
        <mxCell id="GH7jgtNaJzvZroeDMbT2-50" value="Load Balancer" style="text;html=1;align=center;verticalAlign=middle;resizable=0;points=[];autosize=1;strokeColor=none;fillColor=none;fontSize=20;fontFamily=Architects Daughter;" vertex="1" parent="1">
          <mxGeometry x="101.5" y="299" width="160" height="40" as="geometry" />
        </mxCell>
        <mxCell id="GH7jgtNaJzvZroeDMbT2-51" value="www.bplanner.co" style="swimlane;whiteSpace=wrap;html=1;sketch=1;hachureGap=4;jiggle=2;curveFitting=1;fontFamily=Architects Daughter;fontSource=https%3A%2F%2Ffonts.googleapis.com%2Fcss%3Ffamily%3DArchitects%2BDaughter;fontSize=20;fillColor=#99CCFF;" vertex="1" parent="1">
          <mxGeometry x="93" y="175" width="190" height="60" as="geometry" />
        </mxCell>
        <mxCell id="GH7jgtNaJzvZroeDMbT2-53" value="Welcome to $ Budget Planner App&amp;nbsp;" style="text;html=1;align=center;verticalAlign=middle;resizable=0;points=[];autosize=1;strokeColor=none;fillColor=none;fontSize=8;fontFamily=Architects Daughter;" vertex="1" parent="GH7jgtNaJzvZroeDMbT2-51">
          <mxGeometry x="-4" y="24.5" width="150" height="20" as="geometry" />
        </mxCell>
        <mxCell id="GH7jgtNaJzvZroeDMbT2-52" value="" style="endArrow=classic;html=1;rounded=0;sketch=1;hachureGap=4;jiggle=2;curveFitting=1;fontFamily=Architects Daughter;fontSource=https%3A%2F%2Ffonts.googleapis.com%2Fcss%3Ffamily%3DArchitects%2BDaughter;fontSize=16;fillColor=#99CCFF;" edge="1" parent="1">
          <mxGeometry width="50" height="50" relative="1" as="geometry">
            <mxPoint x="181.21000000000004" y="135" as="sourcePoint" />
            <mxPoint x="181.21000000000004" y="165" as="targetPoint" />
          </mxGeometry>
        </mxCell>
        <mxCell id="GH7jgtNaJzvZroeDMbT2-59" value="Budget Planner System Design" style="text;html=1;align=center;verticalAlign=middle;resizable=0;points=[];autosize=1;strokeColor=none;fillColor=none;fontSize=20;fontFamily=Architects Daughter;" vertex="1" parent="1">
          <mxGeometry x="20" y="20" width="300" height="40" as="geometry" />
        </mxCell>
      </root>
    </mxGraphModel>
  </diagram>
</mxfile>
